<svg xmlns="http://www.w3.org/2000/svg" version="1.1" xmlns:xlink="http://www.w3.org/1999/xlink" xmlns:svgjs="http://svgjs.dev/svgjs" width="1500" height="628" viewBox="0 0 1500 628"><g transform="matrix(1,0,0,1,-0.9084522071641459,-1.6158438583428847)"><svg viewBox="0 0 396 166" data-background-color="#ffffff" preserveAspectRatio="xMidYMid meet" height="628" width="1500" xmlns="http://www.w3.org/2000/svg" xmlns:xlink="http://www.w3.org/1999/xlink"><g id="tight-bounds" transform="matrix(1,0,0,1,0.24008861730862918,0.4272022140448115)"><svg viewBox="0 0 395.52 165.14567982339955" height="165.14567982339955" width="395.52"><g><svg viewBox="0 0 395.52 165.14567982339955" height="165.14567982339955" width="395.52"><g><svg viewBox="0 0 395.52 165.14567982339955" height="165.14567982339955" width="395.52"><g id="textblocktransform"><svg viewBox="0 0 395.52 165.14567982339955" height="165.14567982339955" width="395.52" id="textblock"><g><svg viewBox="0 0 395.52 165.14567982339955" height="165.14567982339955" width="395.52"><path d="M394.594 35.421C392.735 18.279 387.435 13.513 387.435 13.513 371.165-4.143 350.86-0.338 332.619 2.199 300.414 2.302 268.339 6.073 236.208 8.096 168.767 8.405 100.749 3.331 33.643 15.844 27.339 19.684-6.54 16.599 1.121 37.615 3.129 46.357 10.456 56.06 10.232 64.082 11.236 65.488 12.631 62.265 13.226 64.288 15.309 69.739 18.711 67.168 21.501 70.39 17.614 78.996 20.403 86.161 23.062 93.669 18.377 95.624 12.371 94.698 9.675 101.178 9.396 105.874 7.89 104.983 6.235 104.777 5.026 104.64 2.59 105.155 2.999 106.629 4.394 111.668-1.594 114.583 2.162 119.52-0.422 124.868 3.948 129.496 3.353 135.29 3.278 136.456 3.687 137.45 4.338 137.724 7.22 139.199 3.018 142.079 3.464 145.198 33.029 166.523 65.104 151.781 95.394 161.586 103.259 154.729 97.346 164.02 100.489 162.58 102.943 160.9 104.728 167.86 107.499 163.917 107.927 162.786 107.276 160.112 108.8 160.626 109.6 160.9 110.307 160.832 110.418 159.255 110.586 156.889 109.117 158.363 108.726 157.129 112.947 150.89 111.906 165.735 115.866 165.117 115.68 163.3 114.528 160.695 116.889 161.038 119.232 158.432 119.306 156.272 121.389 162.135 121.463 163.403 121.835 164.295 122.43 164.912 128.938 158.535 135.409 167.174 142.233 164.295 146.417 161.14 150.433 166.009 154.672 164.809 156.16 163.849 157.666 162.135 159.098 165.015 176.632 165.632 195.319 163.06 211.943 165.117 256.364 161.278 303.836 166.695 350.674 161.62 361.719 159.666 373.192 156.889 383.958 154.661 383.958 154.661 392.679 148.558 392.679 121.131S394.538 97.132 394.817 75.293C395.096 53.454 396.398 52.563 394.538 35.421Z" opacity="1" fill="#ffffff" data-fill-palette-color="tertiary"></path><g transform="matrix(1,0,0,1,55.76832,26.230666666666668)"><svg width="283.98335999999995" viewBox="2.35 -35.95 90.60000000000001 35.95" height="112.68434649006622" data-palette-color="#000000"><path d="M33.3-18.3Q35.85-18.25 35.85-16.1L35.85-16.1Q35.85-15.05 35.2-14.43 34.55-13.8 33.45-13.85L33.45-13.85 32.65-13.85Q32.3-7.2 29-3.6 25.7 0 19.55 0L19.55 0Q14.5 0 10.58-2.33 6.65-4.65 4.5-8.63 2.35-12.6 2.35-17.35L2.35-17.35Q2.35-22.1 4.48-26.05 6.6-30 10.35-32.27 14.1-34.55 18.75-34.55L18.75-34.55Q22.35-34.55 24.88-33.25 27.4-31.95 28.85-30.1L28.85-30.1 28.85-31.15Q28.85-32.05 29.48-32.6 30.1-33.15 31.25-33.15L31.25-33.15Q32.35-33.15 32.98-32.65 33.6-32.15 33.6-31.4L33.6-31.4Q33.7-27.65 33-26.35L33-26.35Q32.4-25.1 30.6-25.1L30.6-25.1Q29.9-25.1 29.35-25.38 28.8-25.65 27.95-26.4L27.95-26.4Q26.65-27.6 25.68-28.3 24.7-29 23.25-29.5 21.8-30 19.8-30L19.8-30Q16.15-30 13.33-28.33 10.5-26.65 8.93-23.73 7.35-20.8 7.35-17.25L7.35-17.25Q7.35-13.7 8.93-10.8 10.5-7.9 13.25-6.23 16-4.55 19.45-4.55L19.45-4.55Q27.25-4.55 27.85-13.9L27.85-13.9 21.45-14Q20.2-14.05 19.63-14.65 19.05-15.25 19.05-16.2L19.05-16.2Q19.05-17.35 19.75-17.98 20.45-18.6 21.55-18.55L21.55-18.55 33.3-18.3ZM56.7-4.7Q57.9-4.7 58.4-4.13 58.9-3.55 58.9-2.45L58.9-2.45Q58.9-0.15 56.65-0.15L56.65-0.15 41.55-0.35Q39.55-0.4 39.55-2.65L39.55-2.65Q39.55-3.8 40.15-4.35 40.75-4.9 41.65-4.9L41.65-4.9 46.85-4.85Q47.6-17.4 47.65-30.9L47.65-30.9Q45.85-30.85 42.7-30.6L42.7-30.6 41.1-30.5Q40.3-30.5 39.8-31.1 39.3-31.7 39.3-32.75L39.3-32.75Q39.3-33.85 39.82-34.38 40.35-34.9 41.3-35.05L41.3-35.05Q42.2-35.15 45-35.3 47.8-35.45 50.5-35.5L50.5-35.5Q54.45-35.5 56.95-35.2L56.95-35.2Q58.9-34.95 58.9-32.95L58.9-32.95Q58.9-31.95 58.37-31.35 57.85-30.75 56.8-30.75L56.8-30.75 55.3-30.8 52.65-30.95Q52.65-16.15 51.75-4.75L51.75-4.75 56.7-4.7ZM71.65-34.9Q81.75-34.1 87.35-29.95 92.95-25.8 92.95-18.05L92.95-18.05Q92.95-12.7 90.25-8.7 87.55-4.7 82.5-2.5 77.45-0.3 70.65-0.3L70.65-0.3 67.2-0.3Q65.75-0.3 65.1-0.83 64.45-1.35 64.45-2.6L64.45-2.6Q64.45-4.75 66.45-4.75L66.45-4.75 67.75-4.75 67-30.55 66.7-30.55Q64.4-30.55 64.4-32.7L64.4-32.7Q64.4-35.05 66.8-35.05L66.8-35.05 67.35-35.05Q67.85-35.95 69.45-35.95L69.45-35.95Q71.1-35.95 71.65-34.9L71.65-34.9ZM72.7-4.8Q77.15-5.1 80.6-6.73 84.05-8.35 86.02-11.25 88-14.15 88-18.05L88-18.05Q88-24.1 83.57-26.9 79.15-29.7 72-30.35L72-30.35 72.7-4.8Z" opacity="1" transform="matrix(1,0,0,1,0,0)" fill="#000000" class="wordmark-text-0" data-fill-palette-color="quaternary" id="text-0"></path></svg></g></svg></g></svg></g></svg></g><g></g></svg></g><defs></defs></svg><rect width="395.52" height="165.14567982339955" fill="none" stroke="none" visibility="hidden"></rect></g></svg></g></svg>